<svg width="17" height="20" viewBox="0 0 17 20" fill="none" xmlns="http://www.w3.org/2000/svg">
<path d="M4.46515 19.8369L4.36121 19.945C4.49847 20.0769 4.68347 20.15 4.87512 20.15H12.3249C12.5166 20.15 12.7015 20.0769 12.8388 19.9451L12.8388 19.945L12.7349 19.8369L12.8388 19.945L12.8388 19.945L12.8389 19.9449L12.8392 19.9447L12.8403 19.9436L12.8447 19.9393L12.8622 19.9225L12.9302 19.8572L13.1859 19.6115L14.0805 18.7525L14.0805 18.7525C17.0327 15.9172 17.1049 11.3452 14.2961 8.4252V6.32643C14.2961 3.30094 11.7352 0.85 8.6 0.85C5.46478 0.85 2.9039 3.30094 2.9039 6.32643V8.4252C0.0951254 11.3452 0.167331 15.9172 3.11951 18.7525L3.11954 18.7525L4.0141 19.6115L4.26985 19.8572L4.3378 19.9225L4.35529 19.9393L4.35972 19.9436L4.36084 19.9447L4.36112 19.9449L4.36119 19.945L4.3612 19.945L4.46515 19.8369ZM7.86639 9.42144C7.80759 10.2537 7.10924 10.9289 6.22951 10.9824C6.28831 10.1502 6.98667 9.47497 7.86639 9.42144ZM4.14415 9.2161C4.28334 9.08403 4.3631 8.90244 4.3631 8.71134V6.32643C4.3631 4.0918 6.2581 2.26328 8.6 2.26328C10.9419 2.26328 12.8369 4.0918 12.8369 6.32643V8.71134C12.8369 8.90253 12.9167 9.08408 13.0559 9.21612C13.2472 9.40009 13.4234 9.59298 13.5847 9.79338H12.134C11.8685 9.24574 11.4415 8.78597 10.9133 8.46976C11.4691 7.91451 11.8128 7.15893 11.8128 6.32643C11.8128 4.61595 10.3659 3.23488 8.59996 3.23488C6.83402 3.23488 5.38709 4.61595 5.38709 6.32643C5.38709 7.15893 5.73081 7.91451 6.28663 8.46976C5.75844 8.78597 5.33144 9.24574 5.06593 9.79338H3.61523C3.77653 9.59297 3.95281 9.40008 4.14415 9.2161ZM6.84633 6.32643C6.84633 5.40681 7.62738 4.64816 8.6 4.64816C9.57262 4.64816 10.3537 5.40681 10.3537 6.32643C10.3537 7.24605 9.57262 8.0047 8.6 8.0047C7.62738 8.0047 6.84633 7.24605 6.84633 6.32643ZM10.9705 10.9824C10.0908 10.9289 9.39241 10.2537 9.33361 9.4214C10.2133 9.47493 10.9117 10.1501 10.9705 10.9824ZM13.0531 17.7489C12.6058 18.1783 12.2403 18.5293 12.0244 18.7368H5.17564C4.95965 18.5292 4.5942 18.1783 4.14691 17.7489C2.30742 15.9822 1.84936 13.3864 2.76961 11.2067H4.76631V11.6925C4.76631 12.0884 5.09874 12.3991 5.4959 12.3991H6.11673C7.11552 12.3991 8.00992 11.9577 8.6 11.2661C9.19005 11.9578 10.0845 12.3991 11.0833 12.3991H11.7041C12.1013 12.3991 12.4337 12.0884 12.4337 11.6925V11.2067H14.4304C15.3506 13.3864 14.8926 15.9822 13.0531 17.7489Z" fill="#6A6E72" stroke="#6A6E72" stroke-width="0.3"/>
</svg>
